<svg xmlns="http://www.w3.org/2000/svg" xmlns:xlink="http://www.w3.org/1999/xlink" width="500" zoomAndPan="magnify" viewBox="0 0 375 374.999991" height="500" preserveAspectRatio="xMidYMid meet" version="1.0"><path fill="#ffffff" d="M 320.082031 54.917969 C 284.667969 19.503906 237.582031 0 187.5 0 C 137.417969 0 90.332031 19.503906 54.917969 54.917969 C 19.503906 90.332031 0 137.417969 0 187.5 C 0 237.582031 19.503906 284.667969 54.917969 320.082031 C 90.332031 355.496094 137.417969 375 187.5 375 C 237.582031 375 284.667969 355.496094 320.082031 320.082031 C 355.496094 284.667969 375 237.582031 375 187.5 C 375 137.417969 355.496094 90.332031 320.082031 54.917969 Z M 20.738281 187.5 C 20.738281 166.617188 24.609375 146.625 31.648438 128.1875 L 99.09375 128.1875 C 96.066406 147.054688 94.488281 167.03125 94.488281 187.5 C 94.488281 207.28125 95.957031 226.605469 98.789062 244.914062 L 30.925781 244.914062 C 24.339844 227.007812 20.738281 207.664062 20.738281 187.5 Z M 115.226562 187.5 C 115.226562 166.902344 116.898438 146.894531 120.09375 128.1875 L 177.128906 128.1875 L 177.128906 244.914062 L 119.773438 244.914062 C 116.785156 226.753906 115.226562 207.402344 115.226562 187.5 Z M 236.539062 66.632812 C 242.226562 78.824219 246.941406 92.574219 250.605469 107.445312 L 197.871094 107.445312 L 197.871094 22.660156 C 211.929688 27.816406 225.609375 43.207031 236.539062 66.632812 Z M 177.128906 22.660156 L 177.128906 107.445312 L 124.394531 107.445312 C 128.058594 92.574219 132.773438 78.824219 138.460938 66.632812 C 149.390625 43.207031 163.070312 27.816406 177.128906 22.660156 Z M 177.128906 265.652344 L 177.128906 352.339844 C 163.070312 347.183594 149.390625 331.792969 138.460938 308.367188 C 132.53125 295.660156 127.664062 281.253906 123.9375 265.652344 Z M 197.871094 352.339844 L 197.871094 265.652344 L 251.0625 265.652344 C 247.335938 281.253906 242.46875 295.660156 236.539062 308.367188 C 225.609375 331.792969 211.929688 347.183594 197.871094 352.339844 Z M 197.871094 244.914062 L 197.871094 128.1875 L 254.90625 128.1875 C 258.101562 146.894531 259.773438 166.902344 259.773438 187.5 C 259.773438 207.402344 258.214844 226.753906 255.226562 244.914062 Z M 275.90625 128.1875 L 343.351562 128.1875 C 350.390625 146.625 354.261719 166.617188 354.261719 187.5 C 354.261719 207.664062 350.660156 227.007812 344.074219 244.914062 L 276.210938 244.914062 C 279.042969 226.605469 280.511719 207.28125 280.511719 187.5 C 280.511719 167.035156 278.933594 147.054688 275.90625 128.1875 Z M 333.753906 107.445312 L 271.898438 107.445312 C 267.761719 89.335938 262.203125 72.59375 255.332031 57.867188 C 250.003906 46.445312 244.046875 36.601562 237.59375 28.429688 C 278.859375 41.453125 313.242188 70.121094 333.753906 107.445312 Z M 137.40625 28.429688 C 130.953125 36.601562 124.996094 46.445312 119.667969 57.867188 C 112.796875 72.59375 107.238281 89.335938 103.101562 107.445312 L 41.246094 107.445312 C 61.757812 70.121094 96.140625 41.453125 137.40625 28.429688 Z M 40.222656 265.652344 L 102.667969 265.652344 C 106.84375 284.496094 112.554688 301.894531 119.667969 317.132812 C 124.996094 328.554688 130.953125 338.398438 137.40625 346.570312 C 95.445312 333.324219 60.605469 303.902344 40.222656 265.652344 Z M 237.59375 346.570312 C 244.046875 338.398438 250.003906 328.554688 255.332031 317.132812 C 262.445312 301.894531 268.15625 284.496094 272.332031 265.652344 L 334.777344 265.652344 C 314.394531 303.902344 279.554688 333.324219 237.59375 346.570312 Z M 237.59375 346.570312 " fill-opacity="1" fill-rule="nonzero"/></svg>