<svg xmlns="http://www.w3.org/2000/svg" xmlns:xlink="http://www.w3.org/1999/xlink" width="500" zoomAndPan="magnify" viewBox="0 0 375 374.999991" height="500" preserveAspectRatio="xMidYMid meet" version="1.0"><defs><clipPath id="780b239be2"><path d="M 0 54.609375 L 375 54.609375 L 375 320.109375 L 0 320.109375 Z M 0 54.609375 " clip-rule="nonzero"/></clipPath></defs><g clip-path="url(#780b239be2)"><path fill="#ffffff" d="M 312.5 289.0625 C 329.765625 289.0625 343.59375 275.078125 343.59375 257.8125 L 343.75 85.9375 C 343.75 68.671875 329.765625 54.6875 312.5 54.6875 L 62.5 54.6875 C 45.234375 54.6875 31.25 68.671875 31.25 85.9375 L 31.25 257.8125 C 31.25 275.078125 45.234375 289.0625 62.5 289.0625 L 0 289.0625 C 0 306.328125 13.984375 320.3125 31.25 320.3125 L 343.75 320.3125 C 361.015625 320.3125 375 306.328125 375 289.0625 Z M 62.5 85.9375 L 312.5 85.9375 L 312.5 257.8125 L 62.5 257.8125 Z M 187.5 304.6875 C 178.90625 304.6875 171.875 297.65625 171.875 289.0625 C 171.875 280.46875 178.90625 273.4375 187.5 273.4375 C 196.09375 273.4375 203.125 280.46875 203.125 289.0625 C 203.125 297.65625 196.09375 304.6875 187.5 304.6875 Z M 187.5 304.6875 " fill-opacity="1" fill-rule="nonzero"/></g></svg>