<svg xmlns="http://www.w3.org/2000/svg" xmlns:xlink="http://www.w3.org/1999/xlink" width="500" zoomAndPan="magnify" viewBox="0 0 375 374.999991" height="500" preserveAspectRatio="xMidYMid meet" version="1.0"><path fill="#00d8ff" d="M 308.070312 128.980469 C 304.199219 127.644531 300.179688 126.378906 296.027344 125.183594 C 296.714844 122.402344 297.34375 119.660156 297.898438 116.960938 C 307.003906 72.667969 301.054688 36.984375 280.691406 25.238281 C 261.160156 13.972656 229.234375 25.71875 196.988281 53.796875 C 193.886719 56.5 190.773438 59.355469 187.675781 62.351562 C 185.597656 60.371094 183.539062 58.457031 181.476562 56.621094 C 147.679688 26.597656 113.804688 13.945312 93.464844 25.726562 C 73.960938 37.023438 68.183594 70.570312 76.394531 112.546875 C 77.1875 116.601562 78.113281 120.742188 79.160156 124.953125 C 74.367188 126.3125 69.738281 127.765625 65.308594 129.308594 C 25.6875 143.132812 0.386719 164.792969 0.386719 187.265625 C 0.386719 210.464844 27.550781 233.75 68.816406 247.867188 C 72.070312 248.976562 75.453125 250.03125 78.933594 251.027344 C 77.804688 255.574219 76.820312 260.035156 75.996094 264.394531 C 68.167969 305.644531 74.28125 338.394531 93.734375 349.613281 C 113.824219 361.210938 147.546875 349.292969 180.378906 320.578125 C 182.984375 318.3125 185.585938 315.898438 188.1875 313.382812 C 191.578125 316.628906 194.957031 319.714844 198.304688 322.613281 C 230.113281 349.992188 261.527344 361.050781 280.953125 349.804688 C 301.027344 338.175781 307.558594 302.980469 299.082031 260.183594 C 298.4375 256.90625 297.679688 253.570312 296.84375 250.175781 C 299.214844 249.476562 301.539062 248.742188 303.804688 247.996094 C 346.707031 233.765625 374.613281 210.785156 374.613281 187.265625 C 374.613281 164.710938 348.492188 142.90625 308.070312 128.980469 Z M 298.773438 232.816406 C 296.726562 233.488281 294.625 234.144531 292.488281 234.773438 C 287.753906 219.78125 281.363281 203.824219 273.527344 187.339844 C 281 171.25 287.136719 155.5 291.742188 140.597656 C 295.574219 141.703125 299.285156 142.875 302.867188 144.105469 C 337.5 156.035156 358.621094 173.675781 358.621094 187.265625 C 358.621094 201.730469 335.816406 220.527344 298.773438 232.816406 Z M 283.394531 263.285156 C 287.152344 282.210938 287.679688 299.324219 285.195312 312.707031 C 282.972656 324.730469 278.484375 332.75 272.945312 335.953125 C 261.148438 342.78125 235.929688 333.902344 208.742188 310.484375 C 205.613281 307.792969 202.46875 304.925781 199.328125 301.898438 C 209.867188 290.359375 220.40625 276.945312 230.695312 262.039062 C 248.78125 260.445312 265.867188 257.8125 281.378906 254.230469 C 282.140625 257.316406 282.8125 260.328125 283.394531 263.285156 Z M 127.972656 334.765625 C 116.453125 338.847656 107.273438 338.964844 101.726562 335.761719 C 89.921875 328.945312 85.015625 302.644531 91.710938 267.378906 C 92.476562 263.34375 93.386719 259.1875 94.441406 254.945312 C 109.769531 258.339844 126.738281 260.78125 144.871094 262.246094 C 155.230469 276.828125 166.074219 290.226562 176.996094 301.957031 C 174.613281 304.269531 172.230469 306.464844 169.863281 308.527344 C 155.34375 321.238281 140.796875 330.246094 127.972656 334.765625 Z M 73.992188 232.726562 C 55.746094 226.480469 40.675781 218.378906 30.34375 209.515625 C 21.0625 201.570312 16.378906 193.671875 16.378906 187.265625 C 16.378906 173.632812 36.691406 156.234375 70.578125 144.414062 C 74.6875 142.980469 78.992188 141.628906 83.457031 140.359375 C 88.140625 155.601562 94.285156 171.542969 101.699219 187.644531 C 94.1875 204 87.957031 220.191406 83.230469 235.625 C 80.046875 234.703125 76.960938 233.738281 73.992188 232.726562 Z M 92.085938 109.476562 C 85.054688 73.511719 89.726562 46.382812 101.480469 39.570312 C 114 32.320312 141.683594 42.660156 170.855469 68.585938 C 172.726562 70.242188 174.597656 71.976562 176.484375 73.769531 C 165.609375 85.453125 154.863281 98.753906 144.597656 113.246094 C 126.996094 114.878906 110.148438 117.5 94.660156 121.011719 C 93.6875 117.089844 92.824219 113.242188 92.085938 109.476562 Z M 253.503906 149.359375 C 249.804688 142.960938 246.003906 136.710938 242.128906 130.632812 C 254.074219 132.144531 265.503906 134.148438 276.25 136.601562 C 273.035156 146.945312 269.011719 157.757812 264.277344 168.851562 C 260.886719 162.398438 257.289062 155.894531 253.503906 149.359375 Z M 187.675781 85.203125 C 195.058594 93.195312 202.441406 102.121094 209.707031 111.804688 C 202.382812 111.457031 194.972656 111.277344 187.5 111.277344 C 180.105469 111.277344 172.75 111.453125 165.472656 111.796875 C 172.738281 102.203125 180.191406 93.289062 187.675781 85.203125 Z M 121.429688 149.46875 C 117.730469 155.886719 114.207031 162.355469 110.863281 168.835938 C 106.210938 157.785156 102.226562 146.921875 98.972656 136.433594 C 109.652344 134.042969 121.039062 132.085938 132.902344 130.605469 C 128.972656 136.738281 125.136719 143.03125 121.429688 149.46875 Z M 133.242188 245.058594 C 120.984375 243.699219 109.429688 241.839844 98.753906 239.515625 C 102.058594 228.835938 106.128906 217.75 110.882812 206.457031 C 114.234375 212.9375 117.769531 219.402344 121.492188 225.835938 C 125.285156 232.390625 129.210938 238.796875 133.242188 245.058594 Z M 188.117188 290.445312 C 180.542969 282.269531 172.984375 273.214844 165.601562 263.488281 C 172.765625 263.765625 180.074219 263.914062 187.5 263.914062 C 195.132812 263.914062 202.675781 263.738281 210.085938 263.414062 C 202.808594 273.316406 195.4375 282.386719 188.117188 290.445312 Z M 264.421875 205.886719 C 269.421875 217.296875 273.648438 228.324219 276.996094 238.828125 C 266.148438 241.296875 254.425781 243.289062 242.085938 244.78125 C 245.976562 238.621094 249.804688 232.257812 253.578125 225.722656 C 257.390625 219.109375 261.003906 212.484375 264.421875 205.886719 Z M 239.71875 217.734375 C 233.871094 227.886719 227.863281 237.570312 221.765625 246.710938 C 210.671875 247.5 199.195312 247.910156 187.5 247.910156 C 175.851562 247.910156 164.519531 247.558594 153.617188 246.84375 C 147.273438 237.582031 141.140625 227.871094 135.328125 217.820312 C 129.53125 207.800781 124.195312 197.695312 119.359375 187.644531 C 124.195312 177.582031 129.515625 167.460938 135.28125 157.460938 L 135.277344 157.460938 C 141.058594 147.433594 147.140625 137.765625 153.425781 128.554688 C 164.550781 127.714844 175.96875 127.273438 187.5 127.273438 C 199.09375 127.273438 210.511719 127.71875 221.636719 128.566406 C 227.832031 137.707031 233.871094 147.34375 239.675781 157.375 C 245.535156 167.519531 250.929688 177.566406 255.796875 187.425781 C 250.945312 197.445312 245.566406 207.597656 239.71875 217.734375 Z M 272.695312 39.09375 C 285.238281 46.324219 290.109375 75.484375 282.226562 113.730469 C 281.730469 116.167969 281.160156 118.652344 280.546875 121.171875 C 265.023438 117.585938 248.167969 114.921875 230.523438 113.265625 C 220.230469 98.613281 209.574219 85.289062 198.875 73.757812 C 201.753906 70.992188 204.632812 68.351562 207.484375 65.859375 C 235.113281 41.800781 260.945312 32.304688 272.695312 39.09375 Z M 187.5 153.820312 C 205.949219 153.820312 220.917969 168.789062 220.917969 187.261719 C 220.917969 205.722656 205.949219 220.699219 187.5 220.699219 C 169.054688 220.699219 154.082031 205.722656 154.082031 187.261719 C 154.082031 168.789062 169.054688 153.820312 187.5 153.820312 Z M 187.5 153.820312 " fill-opacity="1" fill-rule="nonzero"/></svg>